<svg width="260" height="279" viewBox="0 0 260 279" fill="none" xmlns="http://www.w3.org/2000/svg">
<path d="M0.173055 74.4552C-2.2503 109.953 21.3774 130.861 33.4942 136.877V100.026C33.4942 88.7445 36.271 87.4911 39.5526 84.9842L113.011 45.1243V138.381L147.089 156.431V45.1243L219.032 84.9842C226.908 88.5941 227.363 96.516 226.605 100.026V136.877C235.693 132.064 242.004 125.847 244.023 123.34C260.381 103.485 260.936 81.9759 259.169 73.7031L129.671 0L0.173055 74.4552Z" fill="#263286"/>
<path d="M112.254 226.367V181.242L147.09 200.796V244.416L112.254 226.367Z" fill="#263286"/>
<path d="M66.8154 80.4718L101.651 60.918L102.408 141.39L192.527 192.531V247.432L157.691 266.986V208.324L66.8154 156.431V80.4718Z" fill="#008AA1"/>
<path d="M103.167 231.649L145.576 254.963V273.765C140.729 279.782 124.372 278.528 119.828 276.021L67.5742 246.69V166.219L103.167 185.021V231.649Z" fill="#008AA1"/>
<path d="M191.77 81.2309L147.089 54.1562V91.0078L157.692 97.0244V141.397L191.77 160.198V81.2309Z" fill="#008AA1"/>
</svg>
