<svg width="467" height="180" viewBox="0 0 467 180" fill="none" xmlns="http://www.w3.org/2000/svg">
<path d="M14.5947 136V119.491H28.4717V75.3721H19.9062L17.9922 91.498H2.20117V59.8203H79.625V91.498H63.834L61.9199 75.3721H53.3545V119.491H67.2314V136H14.5947ZM110.394 136.861C100.919 136.861 93.486 134.485 88.0947 129.731C82.7354 124.946 80.0557 118.327 80.0557 109.873C80.0557 104.546 81.2201 99.9359 83.5488 96.0439C85.9095 92.152 89.1953 89.1533 93.4062 87.0479C97.6172 84.9105 102.514 83.8418 108.097 83.8418C113.552 83.8418 118.225 84.8467 122.117 86.8564C126.009 88.8343 128.976 91.6097 131.018 95.1826C133.091 98.7236 134.128 102.823 134.128 107.48C134.128 108.565 134.08 109.618 133.984 110.639C133.889 111.628 133.777 112.537 133.649 113.366H102.881C103.423 116.62 104.891 118.965 107.283 120.4C109.708 121.804 112.659 122.506 116.136 122.506C119.071 122.506 121.862 121.995 124.51 120.975C127.189 119.922 129.454 118.614 131.305 117.051L132.597 117.625V131.358C131.065 132.411 129.088 133.352 126.663 134.182C124.239 135.011 121.607 135.665 118.768 136.144C115.96 136.622 113.169 136.861 110.394 136.861ZM109.341 95.6133C107.203 95.6133 105.592 96.4427 104.508 98.1016C103.423 99.7604 102.817 102.073 102.689 105.04H115.992C115.865 102.073 115.258 99.7604 114.174 98.1016C113.121 96.4427 111.51 95.6133 109.341 95.6133ZM169.49 136.861C166.236 136.861 163.078 136.479 160.016 135.713C156.953 134.947 154.242 133.847 151.881 132.411L150.397 136H139.87V118.008H152.12C152.854 120.496 154.13 122.458 155.948 123.894C157.767 125.329 159.744 126.047 161.882 126.047C164.689 126.047 166.093 124.994 166.093 122.889C166.093 121.357 165.455 120.177 164.179 119.348C162.935 118.518 161.308 117.816 159.298 117.242C157.32 116.668 155.215 116.046 152.981 115.376C150.748 114.706 148.627 113.797 146.617 112.648C144.639 111.468 143.012 109.873 141.736 107.863C140.492 105.822 139.87 103.158 139.87 99.8721C139.87 96.9053 140.652 94.2096 142.215 91.7852C143.81 89.3607 146.202 87.4307 149.393 85.9951C152.615 84.5277 156.65 83.7939 161.499 83.7939C164.625 83.7939 167.512 84.1289 170.16 84.7988C172.84 85.4368 175.344 86.4736 177.673 87.9092L178.821 84.7031H189.349V101.164H177.099C176.269 98.7396 175.073 96.9691 173.51 95.8525C171.979 94.7041 170.32 94.1299 168.533 94.1299C165.407 94.1299 163.844 95.0869 163.844 97.001C163.844 98.3408 164.482 99.4095 165.758 100.207C167.066 100.973 168.725 101.643 170.734 102.217C172.776 102.791 174.929 103.445 177.194 104.179C179.459 104.912 181.597 105.901 183.606 107.146C185.648 108.39 187.307 110.049 188.583 112.122C189.891 114.196 190.545 116.891 190.545 120.209C190.545 125.281 188.711 129.333 185.042 132.363C181.405 135.362 176.221 136.861 169.49 136.861Z" fill="#263286"/>
<path d="M319.874 136.861C310.399 136.861 302.966 134.485 297.575 129.731C292.216 124.946 289.536 118.327 289.536 109.873C289.536 104.546 290.701 99.9359 293.029 96.0439C295.39 92.152 298.676 89.1533 302.887 87.0479C307.098 84.9105 311.994 83.8418 317.577 83.8418C323.032 83.8418 327.706 84.8467 331.598 86.8564C335.49 88.8343 338.456 91.6097 340.498 95.1826C342.572 98.7236 343.608 102.823 343.608 107.48C343.608 108.565 343.561 109.618 343.465 110.639C343.369 111.628 343.257 112.537 343.13 113.366H312.361C312.904 116.62 314.371 118.965 316.764 120.4C319.188 121.804 322.139 122.506 325.616 122.506C328.551 122.506 331.342 121.995 333.99 120.975C336.67 119.922 338.935 118.614 340.785 117.051L342.077 117.625V131.358C340.546 132.411 338.568 133.352 336.144 134.182C333.719 135.011 331.087 135.665 328.248 136.144C325.441 136.622 322.649 136.861 319.874 136.861ZM318.821 95.6133C316.684 95.6133 315.073 96.4427 313.988 98.1016C312.904 99.7604 312.298 102.073 312.17 105.04H325.473C325.345 102.073 324.739 99.7604 323.654 98.1016C322.602 96.4427 320.991 95.6133 318.821 95.6133ZM349.733 136V121.645H356.672V99.6807H349.733V86.6172L379.162 83.7939V93.6035C381.044 90.1263 383.644 87.5902 386.962 85.9951C390.28 84.4001 393.454 83.6025 396.484 83.6025V104.179C393.613 103.19 390.981 102.695 388.589 102.695C386.994 102.695 385.319 102.982 383.564 103.557C381.81 104.099 380.502 104.849 379.641 105.806V121.645H390.646V136H349.733ZM419.597 136L404.811 99.0586H400.265V84.7031H434.861V99.0586H429.119L437.445 122.506L446.585 99.0586H440.843V84.7031H465.104V99.0586H460.558L445.771 136H419.597Z" fill="#008AA1"/>
<path d="M276.274 41.4812L253.61 27.6562V46.4737L258.988 49.5457V72.2035L276.274 81.8041V41.4812Z" fill="#008AA1"/>
<path d="M179.088 38.0188C177.859 56.1449 189.844 66.8209 195.99 69.8932V51.0758C195.99 45.3154 197.398 44.6753 199.063 43.3952L236.324 23.0417V70.6613L253.61 79.878V23.0417L290.103 43.3952C294.098 45.2385 294.329 49.2836 293.945 51.0758V69.8932C298.554 67.4353 301.755 64.2606 302.78 62.9808C311.077 52.8422 311.359 41.8592 310.463 37.6348L244.775 0L179.088 38.0188Z" fill="#263286"/>
<path d="M212.892 41.0902L230.562 31.1055L230.946 72.1965L276.658 98.3103V126.344L258.988 136.329V106.375L212.892 79.8768V41.0902Z" fill="#008AA1"/>
<path d="M231.331 118.282L252.842 130.186V139.787C250.384 142.859 242.086 142.219 239.782 140.939L213.276 125.962V84.8711L231.331 94.4716V118.282Z" fill="#008AA1"/>
<path d="M236 117.286V98L253 107.5V126L236 117.286Z" fill="#263286"/>
</svg>
